<svg xmlns="http://www.w3.org/2000/svg" viewBox="0 0 64 64" role="img" aria-label="RYU Portfolio">
  <rect width="64" height="64" rx="14" fill="#0e1016"/>
  <rect x="8" y="10" width="48" height="44" rx="6" fill="#151923" stroke="#2a2f3d" stroke-width="2"/>
  <circle cx="16" cy="18" r="3" fill="#ff5f56"/>
  <circle cx="25" cy="18" r="3" fill="#ffbd2e"/>
  <circle cx="34" cy="18" r="3" fill="#27c93f"/>
  <path d="M16 33h9c3 0 5-2 5-5s-2-5-5-5h-9v22h5v-8h4l5 8h6l-6-9c3-1 5-4 5-8 0-6-4-10-10-10H16v5h9c3 0 5 2 5 5s-2 5-5 5h-4v-5h-5v17h5V33Z" fill="#7ee787"/>
  <path d="M40 23h5v9l7-9h6L48 35v10h-5V35L33 23h6l6 8v-8Z" fill="#e3b341"/>
</svg>
